<mxfile host="65bd71144e">
    <diagram id="X6lluuHPHzlUMDuKsjDB" name="Page-1">
        <mxGraphModel dx="398" dy="438" grid="1" gridSize="10" guides="1" tooltips="1" connect="1" arrows="1" fold="1" page="1" pageScale="1" pageWidth="850" pageHeight="1100" math="0" shadow="0">
            <root>
                <mxCell id="0"/>
                <mxCell id="1" parent="0"/>
                <mxCell id="17" value="&lt;b&gt;Menu&lt;/b&gt;" style="swimlane;fontStyle=0;align=center;verticalAlign=top;childLayout=stackLayout;horizontal=1;startSize=23;horizontalStack=0;resizeParent=1;resizeParentMax=0;resizeLast=0;collapsible=0;marginBottom=0;html=1;" vertex="1" parent="1">
                    <mxGeometry x="285" y="90" width="215" height="360" as="geometry"/>
                </mxCell>
                <mxCell id="20" value="&lt;font color=&quot;#000000&quot;&gt;- foodId : string&lt;/font&gt;" style="text;html=1;strokeColor=none;fillColor=none;align=left;verticalAlign=middle;spacingLeft=4;spacingRight=4;overflow=hidden;rotatable=0;points=[[0,0.5],[1,0.5]];portConstraint=eastwest;fontColor=#808080;" vertex="1" parent="17">
                    <mxGeometry y="23" width="215" height="20" as="geometry"/>
                </mxCell>
                <mxCell id="25" value="&lt;font color=&quot;#000000&quot;&gt;- name : string&lt;/font&gt;" style="text;html=1;strokeColor=none;fillColor=none;align=left;verticalAlign=middle;spacingLeft=4;spacingRight=4;overflow=hidden;rotatable=0;points=[[0,0.5],[1,0.5]];portConstraint=eastwest;fontColor=#808080;" vertex="1" parent="17">
                    <mxGeometry y="43" width="215" height="20" as="geometry"/>
                </mxCell>
                <mxCell id="26" value="&lt;font color=&quot;#000000&quot;&gt;- category : string&lt;/font&gt;" style="text;html=1;strokeColor=none;fillColor=none;align=left;verticalAlign=middle;spacingLeft=4;spacingRight=4;overflow=hidden;rotatable=0;points=[[0,0.5],[1,0.5]];portConstraint=eastwest;fontColor=#808080;" vertex="1" parent="17">
                    <mxGeometry y="63" width="215" height="20" as="geometry"/>
                </mxCell>
                <mxCell id="27" value="&lt;font color=&quot;#000000&quot;&gt;- price : double&lt;/font&gt;" style="text;html=1;strokeColor=none;fillColor=none;align=left;verticalAlign=middle;spacingLeft=4;spacingRight=4;overflow=hidden;rotatable=0;points=[[0,0.5],[1,0.5]];portConstraint=eastwest;fontColor=#808080;" vertex="1" parent="17">
                    <mxGeometry y="83" width="215" height="20" as="geometry"/>
                </mxCell>
                <mxCell id="22" value="" style="line;strokeWidth=1;fillColor=none;align=left;verticalAlign=middle;spacingTop=-1;spacingLeft=3;spacingRight=3;rotatable=0;labelPosition=right;points=[];portConstraint=eastwest;" vertex="1" parent="17">
                    <mxGeometry y="103" width="215" height="8" as="geometry"/>
                </mxCell>
                <mxCell id="28" value="&lt;font color=&quot;#000000&quot;&gt;+ Menu() :&lt;/font&gt;" style="text;html=1;strokeColor=none;fillColor=none;align=left;verticalAlign=middle;spacingLeft=4;spacingRight=4;overflow=hidden;rotatable=0;points=[[0,0.5],[1,0.5]];portConstraint=eastwest;fontColor=#808080;" vertex="1" parent="17">
                    <mxGeometry y="111" width="215" height="20" as="geometry"/>
                </mxCell>
                <mxCell id="29" value="&lt;font color=&quot;#000000&quot;&gt;+ Menu(foodId : string,&lt;br&gt;&lt;span style=&quot;white-space: pre;&quot;&gt;&#9;&lt;/span&gt;&amp;nbsp; &amp;nbsp; &amp;nbsp; name : string,&lt;br&gt;&lt;span style=&quot;white-space: pre;&quot;&gt;&#9;&lt;/span&gt;&amp;nbsp; &amp;nbsp; &amp;nbsp; category : string,&lt;br&gt;&lt;span style=&quot;white-space: pre;&quot;&gt;&#9;&lt;/span&gt;&lt;span style=&quot;white-space-collapse: preserve;&quot;&gt;&amp;nbsp;     price : double) :&lt;/span&gt;&amp;nbsp;&lt;/font&gt;" style="text;html=1;strokeColor=none;fillColor=none;align=left;verticalAlign=middle;spacingLeft=4;spacingRight=4;overflow=hidden;rotatable=0;points=[[0,0.5],[1,0.5]];portConstraint=eastwest;fontColor=#808080;" vertex="1" parent="17">
                    <mxGeometry y="131" width="215" height="69" as="geometry"/>
                </mxCell>
                <mxCell id="33" value="&lt;font color=&quot;#000000&quot;&gt;+ getFoodId() : string&lt;/font&gt;" style="text;html=1;strokeColor=none;fillColor=none;align=left;verticalAlign=middle;spacingLeft=4;spacingRight=4;overflow=hidden;rotatable=0;points=[[0,0.5],[1,0.5]];portConstraint=eastwest;fontColor=#808080;" vertex="1" parent="17">
                    <mxGeometry y="200" width="215" height="20" as="geometry"/>
                </mxCell>
                <mxCell id="36" value="&lt;font color=&quot;#000000&quot;&gt;+ getName() : string&lt;/font&gt;" style="text;html=1;strokeColor=none;fillColor=none;align=left;verticalAlign=middle;spacingLeft=4;spacingRight=4;overflow=hidden;rotatable=0;points=[[0,0.5],[1,0.5]];portConstraint=eastwest;fontColor=#808080;" vertex="1" parent="17">
                    <mxGeometry y="220" width="215" height="20" as="geometry"/>
                </mxCell>
                <mxCell id="31" value="&lt;font color=&quot;#000000&quot;&gt;+ getCategory() : string&lt;/font&gt;" style="text;html=1;strokeColor=none;fillColor=none;align=left;verticalAlign=middle;spacingLeft=4;spacingRight=4;overflow=hidden;rotatable=0;points=[[0,0.5],[1,0.5]];portConstraint=eastwest;fontColor=#808080;" vertex="1" parent="17">
                    <mxGeometry y="240" width="215" height="20" as="geometry"/>
                </mxCell>
                <mxCell id="35" value="&lt;font color=&quot;#000000&quot;&gt;+ getPrice() : price&lt;/font&gt;" style="text;html=1;strokeColor=none;fillColor=none;align=left;verticalAlign=middle;spacingLeft=4;spacingRight=4;overflow=hidden;rotatable=0;points=[[0,0.5],[1,0.5]];portConstraint=eastwest;fontColor=#808080;" vertex="1" parent="17">
                    <mxGeometry y="260" width="215" height="20" as="geometry"/>
                </mxCell>
                <mxCell id="32" value="&lt;font color=&quot;#000000&quot;&gt;+ setFoodId(foodId : string) : void&lt;/font&gt;" style="text;html=1;strokeColor=none;fillColor=none;align=left;verticalAlign=middle;spacingLeft=4;spacingRight=4;overflow=hidden;rotatable=0;points=[[0,0.5],[1,0.5]];portConstraint=eastwest;fontColor=#808080;" vertex="1" parent="17">
                    <mxGeometry y="280" width="215" height="20" as="geometry"/>
                </mxCell>
                <mxCell id="34" value="&lt;font color=&quot;#000000&quot;&gt;+ setName(name : string) : void&lt;/font&gt;" style="text;html=1;strokeColor=none;fillColor=none;align=left;verticalAlign=middle;spacingLeft=4;spacingRight=4;overflow=hidden;rotatable=0;points=[[0,0.5],[1,0.5]];portConstraint=eastwest;fontColor=#808080;" vertex="1" parent="17">
                    <mxGeometry y="300" width="215" height="20" as="geometry"/>
                </mxCell>
                <mxCell id="30" value="&lt;font color=&quot;#000000&quot;&gt;+ setCategory(category : string) : void&lt;/font&gt;" style="text;html=1;strokeColor=none;fillColor=none;align=left;verticalAlign=middle;spacingLeft=4;spacingRight=4;overflow=hidden;rotatable=0;points=[[0,0.5],[1,0.5]];portConstraint=eastwest;fontColor=#808080;" vertex="1" parent="17">
                    <mxGeometry y="320" width="215" height="20" as="geometry"/>
                </mxCell>
                <mxCell id="37" value="&lt;font color=&quot;#000000&quot;&gt;+ setPrice(price : double) : void&lt;/font&gt;" style="text;html=1;strokeColor=none;fillColor=none;align=left;verticalAlign=middle;spacingLeft=4;spacingRight=4;overflow=hidden;rotatable=0;points=[[0,0.5],[1,0.5]];portConstraint=eastwest;fontColor=#808080;" vertex="1" parent="17">
                    <mxGeometry y="340" width="215" height="20" as="geometry"/>
                </mxCell>
            </root>
        </mxGraphModel>
    </diagram>
    <diagram id="yb_ykckmhR52dgJJf3Ul" name="Page-2">
        <mxGraphModel dx="236" dy="332" grid="1" gridSize="10" guides="1" tooltips="1" connect="1" arrows="1" fold="1" page="1" pageScale="1" pageWidth="850" pageHeight="1100" math="0" shadow="0">
            <root>
                <mxCell id="0"/>
                <mxCell id="1" parent="0"/>
                <mxCell id="WejmfTvuR1iWin57AYpA-12" style="edgeStyle=none;html=1;exitX=0.5;exitY=1;exitDx=0;exitDy=0;fontColor=#000000;" edge="1" parent="1" source="WejmfTvuR1iWin57AYpA-1" target="WejmfTvuR1iWin57AYpA-18">
                    <mxGeometry relative="1" as="geometry"/>
                </mxCell>
                <mxCell id="WejmfTvuR1iWin57AYpA-1" value="Start" style="ellipse;whiteSpace=wrap;html=1;fontColor=#000000;" vertex="1" parent="1">
                    <mxGeometry x="490" y="60" width="90" height="30" as="geometry"/>
                </mxCell>
                <mxCell id="WejmfTvuR1iWin57AYpA-6" value="" style="group" vertex="1" connectable="0" parent="1">
                    <mxGeometry x="460" y="420" width="125" height="50" as="geometry"/>
                </mxCell>
                <mxCell id="WejmfTvuR1iWin57AYpA-4" value="Menu" style="shape=parallelogram;perimeter=parallelogramPerimeter;whiteSpace=wrap;html=1;fixedSize=1;fontColor=#000000;" vertex="1" parent="WejmfTvuR1iWin57AYpA-6">
                    <mxGeometry y="10" width="125" height="40" as="geometry"/>
                </mxCell>
                <mxCell id="WejmfTvuR1iWin57AYpA-5" value="Output" style="text;html=1;align=center;verticalAlign=middle;resizable=0;points=[];autosize=1;strokeColor=none;fillColor=none;fontColor=#000000;" vertex="1" parent="WejmfTvuR1iWin57AYpA-6">
                    <mxGeometry x="10" width="60" height="30" as="geometry"/>
                </mxCell>
                <mxCell id="WejmfTvuR1iWin57AYpA-15" style="edgeStyle=none;html=1;exitX=0;exitY=0.5;exitDx=0;exitDy=0;fontColor=#000000;" edge="1" parent="1">
                    <mxGeometry relative="1" as="geometry">
                        <mxPoint x="522.5" y="389.7692307692307" as="targetPoint"/>
                        <mxPoint x="631.5" y="390" as="sourcePoint"/>
                    </mxGeometry>
                </mxCell>
                <mxCell id="WejmfTvuR1iWin57AYpA-11" value="Menu" style="shape=document;whiteSpace=wrap;html=1;boundedLbl=1;fontColor=#000000;" vertex="1" parent="1">
                    <mxGeometry x="632.5" y="370" width="80" height="40" as="geometry"/>
                </mxCell>
                <mxCell id="WejmfTvuR1iWin57AYpA-17" value="" style="group" vertex="1" connectable="0" parent="1">
                    <mxGeometry x="472.5" y="120" width="125" height="50" as="geometry"/>
                </mxCell>
                <mxCell id="WejmfTvuR1iWin57AYpA-18" value="choice" style="shape=parallelogram;perimeter=parallelogramPerimeter;whiteSpace=wrap;html=1;fixedSize=1;fontColor=#000000;" vertex="1" parent="WejmfTvuR1iWin57AYpA-17">
                    <mxGeometry y="10" width="125" height="40" as="geometry"/>
                </mxCell>
                <mxCell id="WejmfTvuR1iWin57AYpA-19" value="Input" style="text;html=1;align=center;verticalAlign=middle;resizable=0;points=[];autosize=1;strokeColor=none;fillColor=none;fontColor=#000000;" vertex="1" parent="WejmfTvuR1iWin57AYpA-17">
                    <mxGeometry x="15" width="50" height="30" as="geometry"/>
                </mxCell>
                <mxCell id="WejmfTvuR1iWin57AYpA-23" value="" style="edgeStyle=none;html=1;fontColor=#000000;" edge="1" parent="1" source="WejmfTvuR1iWin57AYpA-20" target="WejmfTvuR1iWin57AYpA-22">
                    <mxGeometry relative="1" as="geometry"/>
                </mxCell>
                <mxCell id="WejmfTvuR1iWin57AYpA-20" value="(choice == 'Y' || choice == 'y')" style="rhombus;whiteSpace=wrap;html=1;fontColor=#000000;" vertex="1" parent="1">
                    <mxGeometry x="632.5" y="99.5" width="110" height="101" as="geometry"/>
                </mxCell>
                <mxCell id="WejmfTvuR1iWin57AYpA-21" value="" style="edgeStyle=none;html=1;fontColor=#000000;" edge="1" parent="1" source="WejmfTvuR1iWin57AYpA-18" target="WejmfTvuR1iWin57AYpA-20">
                    <mxGeometry relative="1" as="geometry"/>
                </mxCell>
                <mxCell id="WejmfTvuR1iWin57AYpA-28" value="" style="edgeStyle=none;html=1;fontColor=#000000;" edge="1" parent="1" source="WejmfTvuR1iWin57AYpA-22" target="WejmfTvuR1iWin57AYpA-26">
                    <mxGeometry relative="1" as="geometry"/>
                </mxCell>
                <mxCell id="WejmfTvuR1iWin57AYpA-22" value="(choice == 'N' || choice == 'n')" style="rhombus;whiteSpace=wrap;html=1;fontColor=#000000;" vertex="1" parent="1">
                    <mxGeometry x="800" y="99.5" width="110" height="101" as="geometry"/>
                </mxCell>
                <mxCell id="WejmfTvuR1iWin57AYpA-24" value="false" style="text;html=1;align=center;verticalAlign=middle;resizable=0;points=[];autosize=1;strokeColor=none;fillColor=none;fontColor=#000000;" vertex="1" parent="1">
                    <mxGeometry x="742.5" y="120" width="50" height="30" as="geometry"/>
                </mxCell>
                <mxCell id="WejmfTvuR1iWin57AYpA-25" value="" style="group" vertex="1" connectable="0" parent="1">
                    <mxGeometry x="950" y="119" width="125" height="50" as="geometry"/>
                </mxCell>
                <mxCell id="WejmfTvuR1iWin57AYpA-26" value="&quot;Invalid input&quot;" style="shape=parallelogram;perimeter=parallelogramPerimeter;whiteSpace=wrap;html=1;fixedSize=1;fillColor=#f8cecc;strokeColor=#b85450;" vertex="1" parent="WejmfTvuR1iWin57AYpA-25">
                    <mxGeometry y="10" width="125" height="40" as="geometry"/>
                </mxCell>
                <mxCell id="WejmfTvuR1iWin57AYpA-27" value="Output" style="text;html=1;align=center;verticalAlign=middle;resizable=0;points=[];autosize=1;strokeColor=none;fillColor=none;fontColor=#000000;" vertex="1" parent="WejmfTvuR1iWin57AYpA-25">
                    <mxGeometry x="10" width="60" height="30" as="geometry"/>
                </mxCell>
                <mxCell id="WejmfTvuR1iWin57AYpA-29" value="false" style="text;html=1;align=center;verticalAlign=middle;resizable=0;points=[];autosize=1;strokeColor=none;fillColor=none;fontColor=#000000;" vertex="1" parent="1">
                    <mxGeometry x="910" y="119" width="50" height="30" as="geometry"/>
                </mxCell>
            </root>
        </mxGraphModel>
    </diagram>
</mxfile>